<svg width="49" height="43" viewBox="0 0 49 43" fill="none" xmlns="http://www.w3.org/2000/svg">
<path d="M0 7C0 3.13401 3.13401 0 7 0H42C45.866 0 49 3.13401 49 7V36C49 39.866 45.866 43 42 43H7C3.13401 43 0 39.866 0 36V7Z" fill="#FB4444"/>
<path d="M12.1258 34.7258C12.1258 35.6225 12.506 36.4824 13.1827 37.1164C13.8593 37.7505 14.7771 38.1067 15.7341 38.1067H33.7753C34.7323 38.1067 35.6501 37.7505 36.3268 37.1164C37.0034 36.4824 37.3836 35.6225 37.3836 34.7258V14.4405H40.9918V11.0596H33.7753V7.67873C33.7753 6.78207 33.3952 5.92213 32.7185 5.28809C32.0418 4.65405 31.1241 4.29785 30.1671 4.29785H19.3423C18.3854 4.29785 17.4676 4.65405 16.7909 5.28809C16.1142 5.92213 15.7341 6.78207 15.7341 7.67873V11.0596H8.51758V14.4405H12.1258V34.7258ZM19.3423 7.67873H30.1671V11.0596H19.3423V7.67873ZM17.5382 14.4405H33.7753V34.7258H15.7341V14.4405H17.5382Z" fill="white"/>
<path d="M19.3428 17.8213H22.951V31.3448H19.3428V17.8213ZM26.5593 17.8213H30.1675V31.3448H26.5593V17.8213Z" fill="white"/>
</svg>
