<svg width="49" height="43" viewBox="0 0 49 43" fill="none" xmlns="http://www.w3.org/2000/svg">
<path d="M0 7C0 3.13401 3.13401 0 7 0H42C45.866 0 49 3.13401 49 7V36C49 39.866 45.866 43 42 43H7C3.13401 43 0 39.866 0 36V7Z" fill="#8A53FF"/>
<path d="M10.6785 37.9891C10.8115 38.0036 10.9459 38.0036 11.0788 37.9891L17.7498 36.4832C18.0457 36.4197 18.3167 36.2843 18.5336 36.0917L39.0301 17.5242C39.6513 16.9599 40 16.1966 40 15.4009C40 14.6053 39.6513 13.8419 39.0301 13.2777L36.395 10.8833C36.0853 10.6033 35.7174 10.3811 35.3125 10.2296C34.9076 10.078 34.4735 10 34.0352 10C33.5969 10 33.1628 10.078 32.7579 10.2296C32.353 10.3811 31.9851 10.6033 31.6754 10.8833L11.1789 29.3906C10.9634 29.5872 10.8082 29.8311 10.7286 30.0983L9.06084 36.1218C9.0009 36.3167 8.98504 36.5204 9.01419 36.7209C9.04335 36.9214 9.11694 37.1146 9.23056 37.2888C9.34418 37.4631 9.4955 37.6149 9.67551 37.7352C9.85552 37.8556 10.0605 37.9419 10.2783 37.9891C10.4112 38.0036 10.5456 38.0036 10.6785 37.9891ZM34.0269 13.0066L36.6786 15.4009L34.0269 17.7953L31.3918 15.4009L34.0269 13.0066ZM13.8639 31.2277L29.0237 17.5242L31.6754 19.9186L16.4989 33.6221L12.98 34.4051L13.8639 31.2277Z" fill="white"/>
</svg>
